<svg height="605pt" viewBox="-31 -19 605 605.33331" width="605pt" xmlns="http://www.w3.org/2000/svg"><path d="m223.082031 158.390625c0-3.511719-2.214843-5.890625-5.3125-5.890625h-48.386719c-3.089843 0-5.050781 2.375-5.050781 5.890625v2.859375h58.75zm0 0"/><path d="m106.945312 270c-1.722656.046875-3.445312-.15625-5.113281-.609375v28.847656c0 3.511719 2.023438 6.761719 5.113281 6.761719h173.261719c3.097657 0 5.375-3.25 5.375-6.761719v-28.84375c-1.75.445313-3.5625.648438-5.375.605469zm0 0"/><path d="m17.835938 0h505.496093c10.21875 0 18.5 8.28125 18.5 18.5v43c0 10.21875-8.28125 18.5-18.5 18.5h-505.496093c-10.222657 0-18.503907-8.28125-18.503907-18.5v-43c0-10.21875 8.28125-18.5 18.503907-18.5zm0 0"/><path d="m280.207031 181.25h-173.261719c-3.089843 0-5.113281 2.816406-5.113281 6.328125v56.101563c0 3.511718 2.023438 6.320312 5.113281 6.320312h173.261719c3.097657 0 5.375-2.808594 5.375-6.320312v-56.101563c0-3.511719-2.285156-6.328125-5.375-6.328125zm-70.875 45h-32.5c-5.519531 0-10-4.476562-10-10s4.480469-10 10-10h32.5c5.523438 0 10 4.476562 10 10s-4.476562 10-10 10zm0 0"/><path d="m499.332031 320.191406v-220.191406h-457.5v220.191406c0 25.917969 20.976563 47.308594 46.902344 47.308594h179.40625c-.179687.042969-.355469.109375-.535156.160156-.109375.035156-.214844.058594-.316407.097656-.175781.058594-.347656.136719-.523437.207032-.121094.050781-.257813.101562-.390625.160156-.128906.058594-.273438.140625-.410156.214844-.15625.082031-.3125.15625-.46875.25-.109375.066406-.214844.140625-.324219.207031-.167969.113281-.34375.226563-.511719.347656-.097656.070313-.191406.152344-.28125.226563-.171875.136718-.339844.269531-.5.414062l-.042968.035156c-.101563.097657-.195313.199219-.292969.296876-.101563.101562-.230469.21875-.335938.335937l-113.183593 123.796875c-3.730469 4.074219-3.449219 10.402344.628906 14.128906 4.078125 3.730469 10.398437 3.449219 14.128906-.628906l95.800781-104.796875v154.546875c0 5.523438 4.480469 10 10 10 5.523438 0 10-4.476562 10-10v-154.539062l95.800781 104.777343c3.726563 4.078125 10.054688 4.363281 14.132813.628907 4.078125-3.722657 4.355469-10.050782.628906-14.128907l-113.1875-123.789062c-.109375-.121094-.226562-.222657-.34375-.335938-.117187-.117187-.183593-.199219-.285156-.292969l-.046875-.035156c-.164062-.152344-.335938-.289062-.511719-.425781-.085937-.070313-.175781-.144531-.269531-.214844-.175781-.128906-.359375-.246093-.546875-.363281-.089844-.066406-.1875-.128906-.285156-.191406-.167969-.097656-.347657-.1875-.519531-.273438-.121094-.066406-.234376-.128906-.355469-.1875-.15625-.074218-.3125-.125-.46875-.195312-.160157-.0625-.292969-.121094-.441407-.175782-.148437-.046874-.285156-.082031-.429687-.121093-.140625-.039063-.285156-.097657-.4375-.132813h179.414063c25.925781-.003906 46.902343-21.394531 46.902343-47.3125zm-163.75-142.691406h50c5.523438 0 10 4.476562 10 10s-4.476562 10-10 10h-50c-5.519531 0-10-4.476562-10-10s4.480469-10 10-10zm0 37.5h113.75c5.523438 0 10 4.476562 10 10s-4.476562 10-10 10h-113.75c-5.519531 0-10-4.476562-10-10s4.480469-10 10-10zm0 37.5h113.75c5.523438 0 10 4.476562 10 10s-4.476562 10-10 10h-113.75c-5.519531 0-10-4.476562-10-10s4.480469-10 10-10zm-30-26.734375v72.472656c0 14.539063-11.25 26.761719-25.375 26.761719h-173.261719c-14.109374 0-25.113281-12.222656-25.113281-26.761719v-110.660156c0-14.539063 11.003907-26.328125 25.113281-26.328125h37.386719v-2.859375c0-14.539063 10.929688-25.890625 25.050781-25.890625h48.386719c14.128907 0 25.3125 11.351562 25.3125 25.890625v2.859375h37.125c14.125 0 25.375 11.789062 25.375 26.328125zm30 84.234375c-5.519531 0-10-4.476562-10-10s4.480469-10 10-10h113.75c5.523438 0 10 4.476562 10 10s-4.476562 10-10 10zm0 0"/></svg>